<?xml version="1.0" encoding="UTF-8" standalone="no"?>
<!-- Created with Inkscape (http://www.inkscape.org/) -->

<svg
   xmlns:dc="http://purl.org/dc/elements/1.1/"
   xmlns:cc="http://creativecommons.org/ns#"
   xmlns:rdf="http://www.w3.org/1999/02/22-rdf-syntax-ns#"
   xmlns:svg="http://www.w3.org/2000/svg"
   xmlns="http://www.w3.org/2000/svg"
   xmlns:sodipodi="http://sodipodi.sourceforge.net/DTD/sodipodi-0.dtd"
   xmlns:inkscape="http://www.inkscape.org/namespaces/inkscape"
   width="276"
   height="121.00005"
   id="svg2"
   version="1.1"
   inkscape:version="0.48.3.1 r9886"
   sodipodi:docname="resolutey.svg">
  <defs
     id="defs4" />
  <sodipodi:namedview
     id="base"
     pagecolor="#ffffff"
     bordercolor="#666666"
     borderopacity="1.0"
     inkscape:pageopacity="0.0"
     inkscape:pageshadow="2"
     inkscape:zoom="1.4"
     inkscape:cx="201.37128"
     inkscape:cy="114.05293"
     inkscape:document-units="px"
     inkscape:current-layer="layer1"
     showgrid="false"
     inkscape:window-width="1311"
     inkscape:window-height="744"
     inkscape:window-x="55"
     inkscape:window-y="24"
     inkscape:window-maximized="1"
     fit-margin-top="0"
     fit-margin-left="0"
     fit-margin-right="0"
     fit-margin-bottom="0">
    <inkscape:grid
       type="xygrid"
       id="grid2985"
       empspacing="5"
       visible="true"
       enabled="true"
       snapvisiblegridlinesonly="true"
       originx="0.4999995px"
       originy="0.49998998px" />
  </sodipodi:namedview>
  <metadata
     id="metadata7">
    <rdf:RDF>
      <cc:Work
         rdf:about="">
        <dc:format>image/svg+xml</dc:format>
        <dc:type
           rdf:resource="http://purl.org/dc/dcmitype/StillImage" />
        <dc:title></dc:title>
      </cc:Work>
    </rdf:RDF>
  </metadata>
  <g
     inkscape:label="Layer 1"
     inkscape:groupmode="layer"
     id="layer1"
     transform="translate(0.4999995,-931.86212)">
    <path
       sodipodi:type="arc"
       style="fill:#ffff00;stroke:#000000;stroke-width:0.85714281;stroke-linecap:round;stroke-linejoin:round;stroke-miterlimit:4;stroke-opacity:1;stroke-dasharray:none"
       id="path2991-7-6"
       sodipodi:cx="75"
       sodipodi:cy="1027.3622"
       sodipodi:rx="15"
       sodipodi:ry="15"
       d="m 90,1027.3622 a 15,15 0 1 1 -4.1e-5,-0.035"
       sodipodi:start="0"
       sodipodi:end="6.2808448"
       sodipodi:open="true"
       transform="matrix(-1.1666667,0,0,1.1666667,280.6132,-205.63556)" />
    <path
       style="fill:#007b80;fill-opacity:1;stroke:#000000;stroke-width:1;stroke-linecap:butt;stroke-linejoin:miter;stroke-miterlimit:4;stroke-opacity:1;stroke-dasharray:none"
       d="m 275.1132,1025.4537 -15,-15 0,-35 15,-15.00004 -35,0 -15,15.00004 0,35 15,15 z"
       id="path2987"
       inkscape:connector-curvature="0"
       sodipodi:nodetypes="ccccccccc" />
    <path
       style="fill:#007b80;fill-opacity:1;stroke:#000000;stroke-width:1;stroke-linecap:butt;stroke-linejoin:miter;stroke-miterlimit:4;stroke-opacity:1;stroke-dasharray:none"
       d="m 225.1132,980.4537 -20,0 0,25 20,0 z"
       id="path2989"
       inkscape:connector-curvature="0"
       sodipodi:nodetypes="ccccc" />
    <path
       sodipodi:type="arc"
       style="fill:#ffff00;stroke:#000000;stroke-width:0.85714281;stroke-linecap:round;stroke-linejoin:round;stroke-miterlimit:4;stroke-opacity:1;stroke-dasharray:none"
       id="path2991-7"
       sodipodi:cx="75"
       sodipodi:cy="1027.3622"
       sodipodi:rx="15"
       sodipodi:ry="15"
       d="m 90,1027.3622 a 15,15 0 1 1 -4.1e-5,-0.035"
       sodipodi:start="0"
       sodipodi:end="6.2808448"
       sodipodi:open="true"
       transform="matrix(-1.1666667,0,0,1.1666667,245.1132,-205.63553)" />
    <path
       style="fill:#007b80;fill-opacity:1;stroke:#000000;stroke-width:1;stroke-linecap:butt;stroke-linejoin:miter;stroke-miterlimit:4;stroke-opacity:1;stroke-dasharray:none"
       d="m 180.1132,980.4537 -10,0 0,25 10,0 z"
       id="path2989-1"
       inkscape:connector-curvature="0"
       sodipodi:nodetypes="ccccc" />
    <path
       style="fill:#007b80;fill-opacity:1;stroke:#000000;stroke-width:1;stroke-linecap:butt;stroke-linejoin:miter;stroke-miterlimit:4;stroke-opacity:1;stroke-dasharray:none"
       d="m 145.1132,980.4537 -45,0 0,25 45,0 z"
       id="path2989-8"
       inkscape:connector-curvature="0"
       sodipodi:nodetypes="ccccc" />
    <path
       style="fill:#007b80;fill-opacity:1;stroke:#000000;stroke-width:1;stroke-linecap:butt;stroke-linejoin:miter;stroke-miterlimit:4;stroke-opacity:1;stroke-dasharray:none"
       d="m 69.95536,942.47401 -60,0 0,20 60,0 z"
       id="path2989-8-8"
       inkscape:connector-curvature="0"
       sodipodi:nodetypes="ccccc" />
    <path
       style="fill:#007b80;fill-opacity:1;stroke:#000000;stroke-width:1;stroke-linecap:butt;stroke-linejoin:miter;stroke-miterlimit:4;stroke-opacity:1;stroke-dasharray:none"
       d="m 69.95536,932.47401 -60,0 0,10 60,0 z"
       id="path2989-8-8-8"
       inkscape:connector-curvature="0"
       sodipodi:nodetypes="ccccc" />
    <path
       style="fill:#007b80;fill-opacity:1;stroke:#000000;stroke-width:1;stroke-linecap:butt;stroke-linejoin:miter;stroke-miterlimit:4;stroke-opacity:1;stroke-dasharray:none"
       d="m 70.09088,1042.3733 -60,0 0,-20 60,0 z"
       id="path2989-8-8-4"
       inkscape:connector-curvature="0"
       sodipodi:nodetypes="ccccc" />
    <path
       style="fill:#007b80;fill-opacity:1;stroke:#000000;stroke-width:1;stroke-linecap:butt;stroke-linejoin:miter;stroke-miterlimit:4;stroke-opacity:1;stroke-dasharray:none"
       d="m 70.09088,1052.3733 -60,0 0,-10 60,0 z"
       id="path2989-8-8-8-2"
       inkscape:connector-curvature="0"
       sodipodi:nodetypes="ccccc" />
    <path
       style="fill:#007b80;fill-opacity:1;stroke:#000000;stroke-width:1px;stroke-linecap:butt;stroke-linejoin:miter;stroke-opacity:1"
       d="m 100.1132,980.4537 0,25 -30,20 0,-65.00002 z"
       id="path3935"
       inkscape:connector-curvature="0"
       sodipodi:nodetypes="ccccc" />
    <g
       id="g4090"
       transform="matrix(-1,0,0,1,275.06856,0)">
      <path
         sodipodi:nodetypes="ccccccc"
         inkscape:connector-curvature="0"
         id="path2989-8-8-2"
         d="m 204.95536,962.45362 65,0 c 3,6e-5 5,2.00006 5,5.00008 l 0,10 c 0,3 -2,5 -5,5 l -65,0 z"
         style="fill:#007b80;fill-opacity:1;stroke:#000000;stroke-width:1;stroke-linecap:butt;stroke-linejoin:miter;stroke-miterlimit:4;stroke-opacity:1;stroke-dasharray:none" />
      <path
         sodipodi:nodetypes="ccccccc"
         inkscape:connector-curvature="0"
         id="path2989-8-8-2-0"
         d="m 204.95536,982.4537 65,0 c 3,10e-5 5,2.0001 5,5.0001 l 0,10 c 0,3 -2,5 -5,5 l -65,0 z"
         style="fill:#007b80;fill-opacity:1;stroke:#000000;stroke-width:1;stroke-linecap:butt;stroke-linejoin:miter;stroke-miterlimit:4;stroke-opacity:1;stroke-dasharray:none" />
      <path
         sodipodi:nodetypes="ccccccc"
         inkscape:connector-curvature="0"
         id="path2989-8-8-2-5"
         d="m 204.95536,1002.4537 65,0 c 3,10e-5 5,2.0001 5,5.0001 l 0,10 c 0,3 -2,5 -5,5 l -65,0 z"
         style="fill:#007b80;fill-opacity:1;stroke:#000000;stroke-width:1;stroke-linecap:butt;stroke-linejoin:miter;stroke-miterlimit:4;stroke-opacity:1;stroke-dasharray:none" />
    </g>
    <path
       style="fill:#ffff00;fill-opacity:1;stroke:#000000;stroke-width:1px;stroke-linecap:butt;stroke-linejoin:miter;stroke-opacity:1"
       d="m 9.95536,937.47405 -10,-5 0,5 10,5 z"
       id="path3962"
       inkscape:connector-curvature="0" />
    <path
       style="fill:#ffff00;fill-opacity:1;stroke:#000000;stroke-width:1px;stroke-linecap:butt;stroke-linejoin:miter;stroke-opacity:1"
       d="m 9.95536,942.47405 -10,0 0,10 10,0 z"
       id="path3964"
       inkscape:connector-curvature="0" />
    <path
       style="fill:#ffff00;fill-opacity:1;stroke:#000000;stroke-width:1px;stroke-linecap:butt;stroke-linejoin:miter;stroke-opacity:1"
       d="m 9.95536,952.47405 -10,5 0,5 10,-5 z"
       id="path3966"
       inkscape:connector-curvature="0" />
    <path
       style="fill:#ffff00;fill-opacity:1;stroke:#000000;stroke-width:1px;stroke-linecap:butt;stroke-linejoin:miter;stroke-opacity:1"
       d="m 10.09088,1027.3733 -10,-5 0,5 10,5 z"
       id="path3968"
       inkscape:connector-curvature="0" />
    <path
       style="fill:#ffff00;fill-opacity:1;stroke:#000000;stroke-width:1px;stroke-linecap:butt;stroke-linejoin:miter;stroke-opacity:1"
       d="m 10.09088,1032.3733 -10,0 0,10 10,0 z"
       id="path3970"
       inkscape:connector-curvature="0" />
    <path
       style="fill:#ffff00;fill-opacity:1;stroke:#000000;stroke-width:1px;stroke-linecap:butt;stroke-linejoin:miter;stroke-opacity:1"
       d="m 10.09088,1042.3733 -10,5 0,5 10,-5 z"
       id="path3972"
       inkscape:connector-curvature="0" />
    <rect
       style="fill:#ffff00;fill-opacity:1;stroke:none"
       id="rect4055"
       width="3.000001"
       height="19.999998"
       x="-8.0685596"
       y="962.36218"
       transform="scale(-1,1)" />
    <rect
       style="fill:#ffff00;fill-opacity:1;stroke:none"
       id="rect4057"
       width="3.000001"
       height="19.999998"
       x="-8.0685596"
       y="982.36218"
       transform="scale(-1,1)" />
    <rect
       style="fill:#ffff00;fill-opacity:1;stroke:none"
       id="rect4059"
       width="3.000001"
       height="19.999998"
       x="-8.0685596"
       y="1002.3622"
       transform="scale(-1,1)" />
    <g
       id="g4085"
       transform="matrix(-1,0,0,1,270.1132,-24.90849)"
       style="fill:none">
      <path
         sodipodi:nodetypes="ccccccc"
         inkscape:connector-curvature="0"
         id="path2989-8-8-2-9"
         d="m 200,987.3621 65,0 c 3,6e-5 5,2.00006 5,5.00008 l 0,10.00002 c 0,3 -2,5 -5,5 l -65,0 z"
         style="fill:none;stroke:#000000;stroke-width:1;stroke-linecap:butt;stroke-linejoin:miter;stroke-miterlimit:4;stroke-opacity:1;stroke-dasharray:none" />
      <path
         sodipodi:nodetypes="ccccccc"
         inkscape:connector-curvature="0"
         id="path2989-8-8-2-0-7"
         d="m 200,1007.3622 65,0 c 3,10e-5 5,2.0001 5,5.0001 l 0,10 c 0,3 -2,5 -5,5 l -65,0 z"
         style="fill:none;stroke:#000000;stroke-width:1;stroke-linecap:butt;stroke-linejoin:miter;stroke-miterlimit:4;stroke-opacity:1;stroke-dasharray:none" />
      <path
         sodipodi:nodetypes="ccccccc"
         inkscape:connector-curvature="0"
         id="path2989-8-8-2-5-9"
         d="m 200,1027.3622 65,0 c 3,10e-5 5,2.0001 5,5.0001 l 0,10 c 0,3 -2,5 -5,5 l -65,0 z"
         style="fill:none;stroke:#000000;stroke-width:1;stroke-linecap:butt;stroke-linejoin:miter;stroke-miterlimit:4;stroke-opacity:1;stroke-dasharray:none" />
    </g>
    <path
       sodipodi:type="arc"
       style="fill:#ffff00;fill-opacity:1;stroke:#000000;stroke-width:0.39999995;stroke-linecap:round;stroke-linejoin:round;stroke-miterlimit:4;stroke-opacity:1;stroke-dasharray:none"
       id="path2991-7-7"
       sodipodi:cx="75"
       sodipodi:cy="1027.3622"
       sodipodi:rx="15"
       sodipodi:ry="15"
       d="m 90,1027.3622 a 15,15 0 1 1 -4.1e-5,-0.035"
       sodipodi:start="0"
       sodipodi:end="6.2808448"
       sodipodi:open="true"
       transform="matrix(-2.5000003,0,0,2.5000003,235.11313,-1575.4521)" />
    <path
       sodipodi:type="arc"
       style="fill:#008080;stroke:none"
       id="path2991-7-7-7"
       sodipodi:cx="75"
       sodipodi:cy="1027.3622"
       sodipodi:rx="15"
       sodipodi:ry="15"
       d="m 90,1027.3622 a 15,15 0 1 1 -4.1e-5,-0.035"
       sodipodi:start="0"
       sodipodi:end="6.2808448"
       sodipodi:open="true"
       transform="matrix(-2.1666666,0,0,2.1666666,210.06855,-1233.5891)" />
    <path
       inkscape:connector-curvature="0"
       style="font-size:12px;font-style:normal;font-weight:normal;line-height:125%;letter-spacing:0px;word-spacing:0px;fill:#ffff00;fill-opacity:1;stroke:none;font-family:Sans"
       d="m 27.69356,1031.4559 c -1.23047,0 -2.23047,0.4258 -2.96875,1.25 -0.73438,0.8203 -1.09375,1.8984 -1.09375,3.2812 0,1.3828 0.35937,2.4922 1.09375,3.3125 0.73828,0.8203 1.73828,1.2188 2.96875,1.2188 1.22656,0 2.20312,-0.3985 2.9375,-1.2188 0.73437,-0.8242 1.09374,-1.9336 1.09375,-3.3125 -1e-5,-1.3828 -0.35938,-2.4609 -1.09375,-3.2812 -0.73438,-0.8242 -1.71094,-1.25 -2.9375,-1.25 z m 13.1875,0 c -0.86719,0 -1.5625,0.2187 -2.0625,0.625 -0.4961,0.4062 -0.75,0.957 -0.75,1.6562 0,0.5 0.15625,0.9024 0.4375,1.25 0.28515,0.3477 0.67969,0.5938 1.1875,0.7188 -0.57031,0.1328 -1.02344,0.3945 -1.34375,0.7812 -0.32031,0.3867 -0.46875,0.8477 -0.46875,1.4063 0,0.8476 0.26562,1.5156 0.78125,1.9687 0.51953,0.4532 1.2539,0.6563 2.21875,0.6563 0.96484,0 1.70312,-0.2031 2.21875,-0.6563 0.51952,-0.4531 0.78124,-1.1211 0.78125,-1.9687 -10e-6,-0.5586 -0.17969,-1.0196 -0.5,-1.4063 -0.31641,-0.3867 -0.74219,-0.6484 -1.3125,-0.7812 0.5039,-0.125 0.90624,-0.3711 1.1875,-0.7188 0.28515,-0.3476 0.40624,-0.75 0.40625,-1.25 -10e-6,-0.6992 -0.25391,-1.25 -0.75,-1.6562 -0.4961,-0.4063 -1.16016,-0.625 -2.03125,-0.625 z m -28.15625,0.1562 0,8.75 1.1875,0 0,-4.2187 4.1875,4.2187 1.5625,0 -4.65625,-4.6562 4.34375,-4.0938 -1.53125,0 -3.90625,3.6875 0,-3.6875 -1.1875,0 z m 7.875,0 0,8.75 1.1875,0 0,-8.75 -1.1875,0 z m 20.28125,0.7813 c 0.50781,0 0.90234,0.1211 1.1875,0.375 0.28906,0.2539 0.43749,0.6094 0.4375,1.0625 -10e-6,0.4531 -0.14844,0.8086 -0.4375,1.0625 -0.28516,0.2539 -0.67969,0.375 -1.1875,0.375 -0.51172,0 -0.90235,-0.1211 -1.1875,-0.375 -0.28125,-0.2539 -0.4375,-0.6094 -0.4375,-1.0625 0,-0.4531 0.15625,-0.8086 0.4375,-1.0625 0.28515,-0.2539 0.67578,-0.375 1.1875,-0.375 z m -13.1875,0.031 c 0.85937,0 1.53124,0.3281 2.03125,0.9687 0.5039,0.6407 0.74999,1.4883 0.75,2.5938 -1e-5,1.1015 -0.2461,1.9844 -0.75,2.625 -0.50001,0.6406 -1.17188,0.9687 -2.03125,0.9687 -0.85938,0 -1.55469,-0.3281 -2.0625,-0.9687 -0.50391,-0.6406 -0.75,-1.5235 -0.75,-2.625 0,-1.1055 0.24609,-1.9531 0.75,-2.5938 0.50781,-0.6406 1.20312,-0.9687 2.0625,-0.9687 z m 13.1875,3.7812 c 0.5664,0 0.99218,0.168 1.3125,0.4688 0.32421,0.3008 0.49999,0.6914 0.5,1.2187 -10e-6,0.5235 -0.17579,0.9453 -0.5,1.25 -0.32422,0.3008 -0.75,0.4375 -1.3125,0.4375 -0.5625,0 -1.01953,-0.1367 -1.34375,-0.4375 -0.32031,-0.3008 -0.46875,-0.7226 -0.46875,-1.25 0,-0.5273 0.14844,-0.9179 0.46875,-1.2187 0.32422,-0.3008 0.78125,-0.4688 1.34375,-0.4688 z m -7.5625,0.375 0,0.9688 3.15625,0 0,-0.9688 -3.15625,0 z"
       id="flowRoot4095" />
    <path
       sodipodi:type="arc"
       style="fill:none;stroke:#ffff00;stroke-width:0.87499875;stroke-miterlimit:4;stroke-opacity:1;stroke-dasharray:none"
       id="path2991-7-7-7-1"
       sodipodi:cx="75"
       sodipodi:cy="1027.3622"
       sodipodi:rx="15"
       sodipodi:ry="15"
       d="m 90,1027.3622 a 15,15 0 1 1 -4.1e-5,-0.035"
       sodipodi:start="0"
       sodipodi:end="6.2808448"
       sodipodi:open="true"
       transform="matrix(-2.0000029,0,0,2.0000029,197.56878,-1062.3651)" />
    <g
       id="g4171"
       transform="matrix(-1,0,0,-1,275.06856,1985.7244)"
       style="fill:#ffff00">
      <rect
         y="975.36218"
         x="15"
         height="5"
         width="35"
         id="rect4133"
         style="fill:#ffff00;stroke:none" />
      <rect
         y="982.36218"
         x="15"
         height="2.0000007"
         width="35"
         id="rect4133-9"
         style="fill:#ffff00;stroke:none" />
    </g>
    <path
       style="fill:none;stroke:#000000;stroke-width:1;stroke-linecap:butt;stroke-linejoin:miter;stroke-miterlimit:4;stroke-opacity:1;stroke-dasharray:none"
       d="m 275.1132,1025.4537 -15,-15 0,-35 15,-15.00004 -35,0 -15,15.00004 0,35 15,15 z"
       id="path2987-2"
       inkscape:connector-curvature="0"
       sodipodi:nodetypes="ccccccccc" />
  </g>
</svg>
