<?xml version="1.0" encoding="UTF-8" standalone="no"?>
<!-- Created with Inkscape (http://www.inkscape.org/) -->

<svg
   xmlns:dc="http://purl.org/dc/elements/1.1/"
   xmlns:cc="http://creativecommons.org/ns#"
   xmlns:rdf="http://www.w3.org/1999/02/22-rdf-syntax-ns#"
   xmlns:svg="http://www.w3.org/2000/svg"
   xmlns="http://www.w3.org/2000/svg"
   xmlns:sodipodi="http://sodipodi.sourceforge.net/DTD/sodipodi-0.dtd"
   xmlns:inkscape="http://www.inkscape.org/namespaces/inkscape"
   width="61"
   height="61"
   id="svg2"
   version="1.1"
   inkscape:version="0.48.3.1 r9886"
   sodipodi:docname="cannon_carriage_boss.svg">
  <defs
     id="defs4">
    <filter
       inkscape:collect="always"
       id="filter5635"
       x="-0.24255319"
       width="1.4851064"
       y="-0.26950355"
       height="1.5390071">
      <feGaussianBlur
         inkscape:collect="always"
         stdDeviation="5.0531915"
         id="feGaussianBlur5637" />
    </filter>
  </defs>
  <sodipodi:namedview
     id="base"
     pagecolor="#ffffff"
     bordercolor="#666666"
     borderopacity="1.0"
     inkscape:pageopacity="0.0"
     inkscape:pageshadow="2"
     inkscape:zoom="2.8284271"
     inkscape:cx="72.277058"
     inkscape:cy="49.06525"
     inkscape:document-units="px"
     inkscape:current-layer="layer1"
     showgrid="true"
     inkscape:window-width="1866"
     inkscape:window-height="1056"
     inkscape:window-x="54"
     inkscape:window-y="24"
     inkscape:window-maximized="1"
     fit-margin-top="0"
     fit-margin-left="0"
     fit-margin-right="0"
     fit-margin-bottom="0"
     showguides="true"
     inkscape:guide-bbox="true">
    <inkscape:grid
       type="xygrid"
       id="grid3887"
       empspacing="5"
       visible="true"
       enabled="true"
       snapvisiblegridlinesonly="true"
       originx="-89.500007px"
       originy="-9.499996px" />
  </sodipodi:namedview>
  <metadata
     id="metadata7">
    <rdf:RDF>
      <cc:Work
         rdf:about="">
        <dc:format>image/svg+xml</dc:format>
        <dc:type
           rdf:resource="http://purl.org/dc/dcmitype/StillImage" />
        <dc:title></dc:title>
      </cc:Work>
    </rdf:RDF>
  </metadata>
  <g
     inkscape:label="Layer 1"
     inkscape:groupmode="layer"
     id="layer1"
     transform="translate(-491.24529,-403.32933)">
    <g
       id="g4293">
      <path
         sodipodi:nodetypes="ccccccccccccc"
         inkscape:connector-curvature="0"
         id="rect3800"
         d="m 506.74529,403.82933 -10,5 -5,10 0,30 5,10 10,5 30,0 10,-5 5,-10 0,-30 -5,-10 -10,-5 z"
         style="fill:#008080;fill-opacity:1;stroke:#000000;stroke-width:1;stroke-linecap:round;stroke-linejoin:round;stroke-miterlimit:4;stroke-opacity:1;stroke-dasharray:none" />
      <path
         sodipodi:nodetypes="ccccc"
         inkscape:connector-curvature="0"
         id="rect3930-5"
         d="m 503.74529,453.82933 38,2e-5 0,9.99998 -40,0 z"
         style="fill:#008080;fill-opacity:1;stroke:#000000;stroke-width:1;stroke-linecap:round;stroke-linejoin:round;stroke-miterlimit:4;stroke-opacity:1;stroke-dasharray:none;stroke-dashoffset:0" />
      <path
         sodipodi:nodetypes="ccccccc"
         inkscape:connector-curvature="0"
         id="rect3930-5-2"
         d="m 501.74529,403.82933 40,0 0,6 -2,4 -36,0 -2,-4 z"
         style="fill:#800000;fill-opacity:1;stroke:#000000;stroke-width:1;stroke-linecap:round;stroke-linejoin:round;stroke-miterlimit:4;stroke-opacity:1;stroke-dasharray:none;stroke-dashoffset:0" />
      <path
         sodipodi:nodetypes="cccccccc"
         inkscape:connector-curvature="0"
         id="path4051-7-7-0-3-4"
         d="m 551.74529,413.82933 -3,-7 -7,-3 0,6 -2,4 2,2 4,-2 z"
         style="fill:#008080;fill-opacity:1;stroke:#000000;stroke-width:1;stroke-linecap:butt;stroke-linejoin:round;stroke-miterlimit:4;stroke-opacity:1;stroke-dasharray:none" />
      <path
         sodipodi:nodetypes="cccccccc"
         inkscape:connector-curvature="0"
         id="path4051-7-7-0-3-4-4"
         d="m 491.74529,413.82933 3,-7 7,-3 0,6 2,4 -2,2 -4,-2 z"
         style="fill:#008080;fill-opacity:1;stroke:#000000;stroke-width:1;stroke-linecap:butt;stroke-linejoin:round;stroke-miterlimit:4;stroke-opacity:1;stroke-dasharray:none" />
      <path
         sodipodi:nodetypes="ccccccc"
         inkscape:connector-curvature="0"
         id="rect3930-5-2-5"
         d="m 501.74529,463.82933 40,0 0,-6 -2,-4 -36,0 -2,4 z"
         style="fill:#800000;fill-opacity:1;stroke:#000000;stroke-width:1;stroke-linecap:round;stroke-linejoin:round;stroke-miterlimit:4;stroke-opacity:1;stroke-dasharray:none;stroke-dashoffset:0" />
      <path
         sodipodi:nodetypes="cccccccc"
         inkscape:connector-curvature="0"
         id="path4051-7-7-0-3-4-1"
         d="m 551.74529,453.82933 -3,7 -7,3 0,-6 -2,-4 2,-2 4,2 z"
         style="fill:#008080;fill-opacity:1;stroke:#000000;stroke-width:1;stroke-linecap:butt;stroke-linejoin:round;stroke-miterlimit:4;stroke-opacity:1;stroke-dasharray:none" />
      <path
         sodipodi:nodetypes="cccccccc"
         inkscape:connector-curvature="0"
         id="path4051-7-7-0-3-4-4-2"
         d="m 491.74529,453.82933 3,7 7,3 0,-6 2,-4 -2,-2 -4,2 z"
         style="fill:#008080;fill-opacity:1;stroke:#000000;stroke-width:1;stroke-linecap:butt;stroke-linejoin:round;stroke-miterlimit:4;stroke-opacity:1;stroke-dasharray:none" />
      <path
         sodipodi:nodetypes="ccccccc"
         inkscape:connector-curvature="0"
         id="rect3930-5-2-2"
         d="m 491.74529,413.82933 0,40 6,0 4,-2 0,-36 -4,-2 z"
         style="fill:#800000;fill-opacity:1;stroke:#000000;stroke-width:1;stroke-linecap:round;stroke-linejoin:round;stroke-miterlimit:4;stroke-opacity:1;stroke-dasharray:none;stroke-dashoffset:0" />
      <path
         sodipodi:nodetypes="ccccccc"
         inkscape:connector-curvature="0"
         id="rect3930-5-2-2-5"
         d="m 551.74529,413.82933 0,40 -6,0 -4,-2 0,-36 4,-2 z"
         style="fill:#800000;fill-opacity:1;stroke:#000000;stroke-width:1;stroke-linecap:round;stroke-linejoin:round;stroke-miterlimit:4;stroke-opacity:1;stroke-dasharray:none;stroke-dashoffset:0" />
    </g>
    <path
       style="fill:#000000;stroke:#000000;stroke-width:1px;stroke-linecap:butt;stroke-linejoin:miter;stroke-opacity:1;filter:url(#filter5635)"
       d="m 5.499993,30.499996 20,-15 0,-10 15,5 15,10 -10,20 -5,10 -15,-10 -15,5 z"
       id="path5113"
       inkscape:connector-curvature="0"
       transform="matrix(1.3333333,0,0,1.2222222,482.74529,399.88489)" />
  </g>
</svg>
