<?xml version="1.0" encoding="UTF-8" standalone="no"?>
<!-- Created with Inkscape (http://www.inkscape.org/) -->

<svg
   xmlns:dc="http://purl.org/dc/elements/1.1/"
   xmlns:cc="http://creativecommons.org/ns#"
   xmlns:rdf="http://www.w3.org/1999/02/22-rdf-syntax-ns#"
   xmlns:svg="http://www.w3.org/2000/svg"
   xmlns="http://www.w3.org/2000/svg"
   xmlns:sodipodi="http://sodipodi.sourceforge.net/DTD/sodipodi-0.dtd"
   xmlns:inkscape="http://www.inkscape.org/namespaces/inkscape"
   width="96.189636"
   height="85.138298"
   id="svg4181"
   version="1.1"
   inkscape:version="0.48.3.1 r9886"
   sodipodi:docname="lasgun.svg">
  <defs
     id="defs4183">
    <filter
       inkscape:collect="always"
       id="filter4872"
       x="-0.20928009"
       width="1.4185601"
       y="-0.30073714"
       height="1.6014743"
       color-interpolation-filters="sRGB">
      <feGaussianBlur
         inkscape:collect="always"
         stdDeviation="5.6835741"
         id="feGaussianBlur4874" />
    </filter>
  </defs>
  <sodipodi:namedview
     id="base"
     pagecolor="#ffffff"
     bordercolor="#666666"
     borderopacity="1.0"
     inkscape:pageopacity="0.0"
     inkscape:pageshadow="2"
     inkscape:zoom="3.959798"
     inkscape:cx="-12.967856"
     inkscape:cy="67.121894"
     inkscape:document-units="px"
     inkscape:current-layer="layer1"
     showgrid="false"
     fit-margin-top="0"
     fit-margin-left="0"
     fit-margin-right="0"
     fit-margin-bottom="0"
     inkscape:window-width="1866"
     inkscape:window-height="1056"
     inkscape:window-x="54"
     inkscape:window-y="24"
     inkscape:window-maximized="1" />
  <metadata
     id="metadata4186">
    <rdf:RDF>
      <cc:Work
         rdf:about="">
        <dc:format>image/svg+xml</dc:format>
        <dc:type
           rdf:resource="http://purl.org/dc/dcmitype/StillImage" />
        <dc:title></dc:title>
      </cc:Work>
    </rdf:RDF>
  </metadata>
  <g
     inkscape:label="Layer 1"
     inkscape:groupmode="layer"
     id="layer1"
     transform="translate(-76.75,-290.84154)">
    <g
       id="g4876">
      <path
         transform="matrix(0.78642506,0,0,1.1720855,64.552387,319.44124)"
         style="fill:#1a1a1a;fill-opacity:1;stroke:none;filter:url(#filter4872)"
         d="m 120,11.918458 c 0,6.499076 -10.3509,6.542211 -16.64549,10.677062 -5.836359,3.83384 -2.14651,14.371576 -10.80585,14.371576 -17.998566,0 -28.414705,-11.661767 -28.414705,-24.186796 0,-12.52502928 -0.82312,-25.91048 17.175446,-25.91048 C 99.307968,-13.13018 120,-0.60657131 120,11.918458 z"
         id="path4350"
         inkscape:connector-curvature="0"
         sodipodi:nodetypes="ssssss" />
      <path
         sodipodi:nodetypes="cccccccccccccccccc"
         inkscape:connector-curvature="0"
         id="path3924-9"
         d="m 101.78571,327.36216 -6.999545,-2.16835 -4.099938,-5.64395 -4.551221,-4.95021 -8.456439,-0.98749 3.839157,7.04327 6.76741,1.6821 1.564059,5.08925 16.494937,4.05284 -7.956008,3.0591 -8.166228,-0.56011 -6.605637,2.00833 -6.473404,7.62522 11.269585,-5.44363 6.957776,1.65242 6.415496,-2.45879 15.35714,-5.91575 z"
         style="fill:#1a1a1a;stroke:#000000;stroke-width:1px;stroke-linecap:butt;stroke-linejoin:miter;stroke-opacity:1" />
      <path
         inkscape:connector-curvature="0"
         id="path3922-4"
         d="m 101.78571,327.36216 5,-5 25,0 4,4.00002 1,5.99998 -1,6.00002 -4,4 -25,0 -5,-5.00002 0,-3.41575 10.93264,-0.60281 8.13696,-2.89371 10.67849,4.53146 -8.67666,-6.87242 -10.69212,2.78223 -10.37931,-0.15904 z"
         style="fill:#333333;stroke:#000000;stroke-width:1px;stroke-linecap:butt;stroke-linejoin:miter;stroke-opacity:1"
         sodipodi:nodetypes="ccccccccccccccccc" />
      <path
         sodipodi:nodetypes="cccccccccccc"
         style="fill:none;stroke:#000000;stroke-width:1px;stroke-linecap:butt;stroke-linejoin:miter;stroke-opacity:1"
         d="m 101.78571,327.36216 5,-5 25,0 4,4.00002 1,5.99998 -1,6.00002 -4,4 -25,0 -5,-5.00002 0,-3.41575 0,-3.75 z"
         id="path3922-4-5"
         inkscape:connector-curvature="0" />
    </g>
  </g>
</svg>
